Some old video about Taylor in awesome quality.
Downloaded? Let other people do it - please share.

=======================================================================
General
ID                               : 1 (0x1)
Complete name                    : C:\\Users\\***\\Videos\\Taylor Swift - E! Entertainment Specials 2010 1080i HDTV DD2.0 MPEG2-TrollHD.ts
Format                           : MPEG-TS
Format/Info                      : Audio Coding 3
File size                        : 3.90 GiB
Duration                         : 44mn 27s
Overall bit rate                 : 12.6 Mbps

Video
ID                               : 224 (0xE0)
Menu ID                          : 1 (0x1)
Format                           : MPEG Video
Format version                   : Version 2
Format profile                   : Main@High
Format settings, BVOP            : Yes
Format settings, Matrix          : Default
Codec ID                         : 2
Duration                         : 44mn 27s
Bit rate mode                    : Variable
Bit rate                         : 11.6 Mbps
Nominal bit rate                 : 20.0 Mbps
Width                            : 1 920 pixels
Height                           : 1 080 pixels
Display aspect ratio             : 16:9
Frame rate                       : 29.970 fps
Color space                      : YUV
Chroma subsampling               : 4:2:0
Bit depth                        : 8 bits
Scan type                        : Interlaced
Scan order                       : Top Field First
Compression mode                 : Lossy
Bits/(Pixel*Frame)               : 0.186
Stream size                      : 3.59 GiB (92%)

Audio
ID                               : 128 (0x80)
Menu ID                          : 1 (0x1)
Format                           : AC-3
Format/Info                      : Audio Coding 3
Mode extension                   : CM (complete main)
Codec ID                         : 129
Duration                         : 44mn 27s
Bit rate mode                    : Constant
Bit rate                         : 384 Kbps
Channel(s)                       : 2 channels
Channel positions                : Front: L R
Sampling rate                    : 48.0 KHz
Bit depth                        : 16 bits
Compression mode                 : Lossy
Stream size                      : 122 MiB (3%)
Language                         : English

